HIERARCHY
ROOT joint_0
{
	OFFSET 0.000000 0.000000 0.000000
	CHANNELS 6 Xposition Yposition Zposition Zrotation Yrotation Xrotation 
	JOINT joint_1
	{
		OFFSET 7.683380 1.521202 101.454956
		CHANNELS 3 Zrotation Yrotation Xrotation
		JOINT joint_2
		{
			OFFSET -4.816528 0.859650 92.807007
			CHANNELS 3 Zrotation Yrotation Xrotation
			JOINT joint_3
			{
				OFFSET -7.237778 1.114670 92.543091
				CHANNELS 3 Zrotation Yrotation Xrotation
				JOINT joint_4
				{
					OFFSET 0.479660 2.971886 127.844971
					CHANNELS 3 Zrotation Yrotation Xrotation
					JOINT joint_5
					{
						OFFSET 15.211349 9.937172 76.390015
						CHANNELS 3 Zrotation Yrotation Xrotation
						End Site
						{
							OFFSET 0.000000 0.000000 0.000000
						}
					}
				}
				JOINT joint_6
				{
					OFFSET 2.887054 -26.053230 72.331909
					CHANNELS 3 Zrotation Yrotation Xrotation
					JOINT joint_7
					{
						OFFSET 10.229767 -132.540291 -13.979004
						CHANNELS 3 Zrotation Yrotation Xrotation
						JOINT joint_8
						{
							OFFSET 17.695633 -10.988861 -262.204956
							CHANNELS 3 Zrotation Yrotation Xrotation
							JOINT joint_9
							{
								OFFSET 11.003433 -0.031860 -255.909973
								CHANNELS 3 Zrotation Yrotation Xrotation
								End Site
								{
									OFFSET 0.000000 0.000000 0.000000
								}
							}
						}
					}
				}
				JOINT joint_10
				{
					OFFSET -2.092239 29.348854 71.062988
					CHANNELS 3 Zrotation Yrotation Xrotation
					JOINT joint_11
					{
						OFFSET -11.853149 131.935837 -17.877075
						CHANNELS 3 Zrotation Yrotation Xrotation
						JOINT joint_12
						{
							OFFSET 14.084503 10.700203 -262.437012
							CHANNELS 3 Zrotation Yrotation Xrotation
							JOINT joint_13
							{
								OFFSET 48.202347 13.087273 -251.229919
								CHANNELS 3 Zrotation Yrotation Xrotation
								End Site
								{
									OFFSET 0.000000 0.000000 0.000000
								}
							}
						}
					}
				}
			}
		}
	}
	JOINT joint_14
	{
		OFFSET 4.150818 -83.296913 -102.580017
		CHANNELS 3 Zrotation Yrotation Xrotation
		JOINT joint_15
		{
			OFFSET -36.423187 -7.342392 -449.858948
			CHANNELS 3 Zrotation Yrotation Xrotation
			JOINT joint_16
			{
				OFFSET -41.100235 -7.280350 -426.202026
				CHANNELS 3 Zrotation Yrotation Xrotation
				JOINT joint_17
				{
					OFFSET 175.972961 13.159744 -75.358000
					CHANNELS 3 Zrotation Yrotation Xrotation
					End Site
					{
						OFFSET 0.000000 0.000000 0.000000
					}
				}
			}
		}
	}
	JOINT joint_18
	{
		OFFSET -9.062592 83.477568 -102.093018
		CHANNELS 3 Zrotation Yrotation Xrotation
		JOINT joint_19
		{
			OFFSET -39.145699 -6.092751 -449.645996
			CHANNELS 3 Zrotation Yrotation Xrotation
			JOINT joint_20
			{
				OFFSET -32.926178 -7.016375 -426.911980
				CHANNELS 3 Zrotation Yrotation Xrotation
				JOINT joint_21
				{
					OFFSET 176.289299 16.780729 -73.883997
					CHANNELS 3 Zrotation Yrotation Xrotation
					End Site
					{
						OFFSET 0.000000 0.000000 0.000000
					}
				}
			}
		}
	}
}
MOTION
Frames: 7
Frame Time: 0.016667
620.220825 -110.802711 1077.833984 -0.848595 8.018530 -0.943948 -0.451636 -0.760722 3.252775 -0.664213 0.194252 -0.698555 -0.550035 -0.363322 0.570300 0.109735 -3.258182 1.771711 0.000000 0.000000 0.000000 4.541985 2.801573 -1.822837 -0.532063 3.375375 -1.445169 0.083225 -5.904852 2.466266 0.000000 0.000000 0.000000 -1.447053 4.285139 1.730184 -0.144650 3.896899 -5.011687 0.290902 3.183594 0.387141 0.000000 0.000000 0.000000 1.152262 -15.609691 0.543344 0.785070 15.458793 0.671202 1.224374 -3.193752 0.751338 0.000000 0.000000 0.000000 0.008280 -11.614993 6.007481 0.588833 8.945868 -3.353076 0.500484 -1.822934 0.381492 0.000000 0.000000 0.000000 
630.359558 -111.861748 1079.180054 -1.962344 8.256703 -1.767843 -0.266221 -0.454228 4.202027 -0.474115 0.288378 -0.977819 -0.315454 -0.293509 0.625840 0.096297 -3.172739 1.813422 0.000000 0.000000 0.000000 5.114522 2.947101 -2.623523 -0.579908 3.674354 -1.281943 0.063952 -7.130214 2.215402 0.000000 0.000000 0.000000 -2.009337 3.957800 2.537629 -0.082369 3.580089 -5.205496 0.416883 4.845173 0.329457 0.000000 0.000000 0.000000 1.298188 -19.473341 1.104707 1.032514 23.117696 1.325195 1.813299 -3.789566 1.025603 0.000000 0.000000 0.000000 0.021643 -12.765411 7.067647 0.872570 12.085848 -3.615296 0.848728 -2.524899 0.589251 0.000000 0.000000 0.000000 
639.802368 -112.625671 1080.657959 -2.833288 8.338271 -2.360013 -0.134518 0.059493 4.808853 -0.308614 0.229927 -1.062579 -0.120825 -0.162869 0.683954 -0.004965 -2.559777 1.890494 0.000000 0.000000 0.000000 5.143185 2.972182 -3.707173 -0.624280 3.828866 -1.149826 0.052130 -8.510765 2.006998 0.000000 0.000000 0.000000 -2.640103 3.121007 3.541825 -0.044972 2.774081 -5.096224 0.476572 7.113562 -0.433225 0.000000 0.000000 0.000000 1.228641 -24.157799 1.201331 1.363076 32.410851 2.383029 2.732734 -3.043526 1.308625 0.000000 0.000000 0.000000 -0.225912 -14.146607 7.771521 1.062482 15.874997 -3.622195 1.176761 -2.979369 0.759597 0.000000 0.000000 0.000000 
649.852539 -113.569603 1081.650024 -3.293993 8.044974 -2.505458 -0.082194 1.053720 4.945726 -0.321260 -0.066153 -0.988576 -0.146950 0.012871 0.743086 -0.123001 -1.796158 1.922440 0.000000 0.000000 0.000000 4.982408 2.903707 -4.625869 -0.658679 3.832098 -1.388730 0.057904 -9.586675 1.893470 0.000000 0.000000 0.000000 -3.236673 2.387316 4.367320 -0.013651 2.132254 -4.393013 0.478995 8.800057 -1.439857 0.000000 0.000000 0.000000 0.640351 -28.196635 0.981230 1.442284 40.794314 3.148254 3.236682 -1.581265 1.356440 0.000000 0.000000 0.000000 -0.645247 -14.964168 7.994588 1.163464 19.354266 -3.556969 1.447840 -3.094772 0.869653 0.000000 0.000000 0.000000 
661.426025 -115.082321 1081.578003 -3.612567 7.489123 -2.264134 -0.096665 2.119519 4.909925 -0.502366 -0.317738 -0.944290 -0.356898 0.210072 0.761059 -0.211020 -1.095117 1.842661 0.000000 0.000000 0.000000 4.848707 2.748140 -5.152431 -0.684987 3.662120 -2.229200 0.086329 -9.999991 1.942550 0.000000 0.000000 0.000000 -3.726800 2.297535 4.798378 -0.014763 2.237430 -2.648000 0.327993 8.887433 -2.563502 0.000000 0.000000 0.000000 -0.447891 -31.277820 0.788055 1.059851 47.543523 3.096698 2.309486 -1.124143 0.953590 0.000000 0.000000 0.000000 -1.026934 -15.020130 7.842052 1.267994 22.074381 -3.565279 1.710371 -3.129502 0.966203 0.000000 0.000000 0.000000 
674.040161 -116.987488 1080.677979 -3.856710 6.750933 -1.707374 -0.149162 3.167193 4.737119 -0.806017 -0.501131 -0.909572 -0.698924 0.433380 0.737440 -0.294331 -0.318275 1.669827 0.000000 0.000000 0.000000 4.620011 2.476013 -5.445312 -0.705386 3.298446 -3.548168 0.133569 -9.917057 2.137960 0.000000 0.000000 0.000000 -4.172310 2.649366 4.764599 -0.045291 2.906419 0.215350 0.011493 7.767130 -3.910153 0.000000 0.000000 0.000000 -1.830457 -34.001045 0.561600 0.446158 53.656146 2.507391 0.009383 -1.635001 0.155139 0.000000 0.000000 0.000000 -1.372763 -14.628578 7.330699 1.364837 24.416568 -3.575996 1.974478 -3.129168 1.058225 0.000000 0.000000 0.000000 
687.356873 -118.915886 1079.687012 -4.160943 5.939546 -1.050953 -0.152647 4.199826 4.400489 -1.147592 -0.689638 -0.847571 -1.097088 0.653404 0.714014 -0.370058 0.395851 1.497270 0.000000 0.000000 0.000000 4.360951 2.153398 -5.473086 -0.710681 2.836889 -4.964913 0.179506 -9.582632 2.238213 0.000000 0.000000 0.000000 -4.435634 2.896494 4.497357 0.003369 3.405185 2.376671 -0.161251 6.575619 -4.337982 0.000000 0.000000 0.000000 -2.980144 -36.423971 0.162432 0.071405 58.419821 1.958250 -2.475659 -2.381781 -0.664888 0.000000 0.000000 0.000000 -1.596168 -13.712220 6.672321 1.438615 25.968211 -3.616555 2.175856 -3.001295 1.114576 0.000000 0.000000 0.000000 
